<svg width="818" height="507" viewBox="0 0 818 507" fill="none" xmlns="http://www.w3.org/2000/svg">
<g filter="url(#filter0_n_37_710)">
<path d="M400.106 161.549C523.969 172.033 729.837 5.16733 806.114 268.3C828.161 362.254 855.167 458.493 486.745 499.886C118.323 541.279 90.2381 393.451 29.249 242.409C-31.74 91.3664 7.29188 11.4534 103.333 0.530059C199.375 -10.3932 276.243 151.065 400.106 161.549Z" fill="url(#paint0_linear_37_710)"/>
<path d="M400.106 161.549C523.969 172.033 729.837 5.16733 806.114 268.3C828.161 362.254 855.167 458.493 486.745 499.886C118.323 541.279 90.2381 393.451 29.249 242.409C-31.74 91.3664 7.29188 11.4534 103.333 0.530059C199.375 -10.3932 276.243 151.065 400.106 161.549Z" fill="url(#paint1_linear_37_710)"/>
<path d="M400.106 161.549C523.969 172.033 729.837 5.16733 806.114 268.3C828.161 362.254 855.167 458.493 486.745 499.886C118.323 541.279 90.2381 393.451 29.249 242.409C-31.74 91.3664 7.29188 11.4534 103.333 0.530059C199.375 -10.3932 276.243 151.065 400.106 161.549Z" fill="url(#paint2_linear_37_710)"/>
</g>
<defs>
<filter id="filter0_n_37_710" x="0" y="0" width="817.325" height="506.942" filterUnits="userSpaceOnUse" color-interpolation-filters="sRGB">
<feFlood flood-opacity="0" result="BackgroundImageFix"/>
<feBlend mode="normal" in="SourceGraphic" in2="BackgroundImageFix" result="shape"/>
<feTurbulence type="fractalNoise" baseFrequency="2 2" stitchTiles="stitch" numOctaves="3" result="noise" seed="8915" />
<feColorMatrix in="noise" type="luminanceToAlpha" result="alphaNoise" />
<feComponentTransfer in="alphaNoise" result="coloredNoise1">
<feFuncA type="discrete" tableValues="1 1 1 1 1 1 1 1 1 1 1 1 1 1 1 1 1 1 1 1 1 1 1 1 1 1 1 1 1 1 1 1 1 1 1 1 1 1 1 1 1 1 1 1 1 1 1 1 1 1 1 0 0 0 0 0 0 0 0 0 0 0 0 0 0 0 0 0 0 0 0 0 0 0 0 0 0 0 0 0 0 0 0 0 0 0 0 0 0 0 0 0 0 0 0 0 0 0 0 0 "/>
</feComponentTransfer>
<feComposite operator="in" in2="shape" in="coloredNoise1" result="noise1Clipped" />
<feFlood flood-color="rgba(255, 255, 255, 0.25)" result="color1Flood" />
<feComposite operator="in" in2="noise1Clipped" in="color1Flood" result="color1" />
<feMerge result="effect1_noise_37_710">
<feMergeNode in="shape" />
<feMergeNode in="color1" />
</feMerge>
</filter>
<linearGradient id="paint0_linear_37_710" x1="415.881" y1="10.0583" x2="399.277" y2="508.273" gradientUnits="userSpaceOnUse">
<stop offset="0.0721154" stop-color="#E1F4F0"/>
<stop offset="0.581731" stop-color="#FFAEC5"/>
<stop offset="1" stop-color="#FF0048"/>
</linearGradient>
<linearGradient id="paint1_linear_37_710" x1="415.881" y1="10.0583" x2="399.277" y2="508.273" gradientUnits="userSpaceOnUse">
<stop offset="0.0721154" stop-color="#E1F4F0"/>
<stop offset="0.581731" stop-color="#F08181"/>
<stop offset="1" stop-color="#F12F03"/>
</linearGradient>
<linearGradient id="paint2_linear_37_710" x1="415.881" y1="10.0584" x2="323.143" y2="415.975" gradientUnits="userSpaceOnUse">
<stop offset="0.0721154" stop-color="#D61D00"/>
<stop offset="0.581731" stop-color="#B60609"/>
<stop offset="1" stop-color="#ED8385"/>
</linearGradient>
</defs>
</svg>

